<svg width="470" height="470" viewBox="0 0 470 470" fill="none" xmlns="http://www.w3.org/2000/svg">
<path d="M401.161 68.8215C368.295 35.9586 326.422 13.5794 280.837 4.51381C235.252 -4.55177 188.003 0.103412 145.064 17.8907C102.125 35.678 65.424 65.7985 39.603 104.444C13.7819 143.089 0 188.522 0 235C0 281.478 13.7819 326.911 39.603 365.556C65.424 404.201 102.125 434.322 145.064 452.109C188.003 469.897 235.252 474.552 280.837 465.486C326.422 456.421 368.295 434.041 401.161 401.178C422.986 379.356 440.298 353.449 452.109 324.936C463.921 296.423 470 265.863 470 235C470 204.137 463.921 173.577 452.109 145.064C440.298 116.551 422.986 90.6436 401.161 68.8215ZM251.769 354.178C251.769 358.63 250 362.9 246.852 366.048C243.704 369.196 239.435 370.964 234.983 370.964C230.523 370.824 226.274 369.029 223.065 365.928C221.509 364.36 220.279 362.5 219.443 360.455C218.608 358.41 218.184 356.22 218.197 354.011V251.786H116.308C114.099 251.798 111.909 251.375 109.864 250.54C107.819 249.704 105.959 248.474 104.39 246.918C101.289 243.709 99.4942 239.46 99.3544 235C99.3544 230.548 101.123 226.279 104.271 223.131C107.419 219.983 111.688 218.214 116.14 218.214H218.197V116.325C218.197 111.873 219.966 107.604 223.114 104.456C226.262 101.308 230.531 99.5393 234.983 99.5393C239.435 99.5393 243.704 101.308 246.852 104.456C250 107.604 251.769 111.873 251.769 116.325V218.214H353.658C358.11 218.214 362.379 219.983 365.527 223.131C368.675 226.279 370.444 230.548 370.444 235C370.444 239.452 368.675 243.721 365.527 246.869C362.379 250.017 358.11 251.786 353.658 251.786H251.769V354.178Z" fill="#21488C"/>
</svg>
