<svg width="470" height="470" viewBox="0 0 470 470" fill="none" xmlns="http://www.w3.org/2000/svg">
<path d="M376.273 147.893C370.528 142.317 361.337 142.468 355.761 148.224L194.621 314.662L108.866 235.923C102.965 230.503 93.7853 230.903 88.3716 236.799C82.9579 242.694 83.3467 251.874 89.2478 257.293L185.406 345.589C188.186 348.142 191.702 349.407 195.212 349.407C199.001 349.407 202.796 347.928 205.634 344.992L376.598 168.405C382.174 162.649 382.023 153.464 376.273 147.893ZM235 0C105.419 0 0 105.419 0 235C0 364.581 105.419 470 235 470C364.581 470 470 364.581 470 235C470 105.419 364.581 0 235 0ZM235 440.988C121.417 440.988 29.0123 348.583 29.0123 235C29.0123 121.417 121.417 29.0123 235 29.0123C348.583 29.0123 440.988 121.417 440.988 235C440.988 348.583 348.583 440.988 235 440.988Z" fill="black"/>
</svg>
