<svg width="469" height="330" viewBox="0 0 469 330" fill="none" xmlns="http://www.w3.org/2000/svg">
<path d="M49.0047 0H419.638C433.117 0 445.376 5.51625 454.251 14.3913C463.126 23.2664 468.642 35.5254 468.642 49.0047V280.995C468.642 294.449 463.12 306.715 454.232 315.59C445.376 324.484 433.117 330 419.638 330H49.0047C35.5191 330 23.2601 324.49 14.385 315.615C5.50996 306.74 0 294.481 0 280.995V49.0047C0 35.5254 5.51625 23.2664 14.3913 14.3913L14.8693 13.951C23.713 5.33385 35.7833 0 49.0047 0ZM187.955 154.191L31.9716 309.256C36.9532 312.275 42.7902 314.024 49.0047 314.024H419.638C424.103 314.024 428.374 313.118 432.274 311.489L291.128 150.895L271.001 166.066C260.578 173.922 248.885 177.879 237.167 177.879C225.493 177.879 213.851 173.941 203.479 166.035L187.955 154.191ZM20.719 297.978L175.168 144.441L23.172 28.4996C18.6747 34.1479 15.9764 41.2807 15.9764 49.0047V280.995C15.9764 287.191 17.7187 293.009 20.719 297.978ZM303.916 141.265L445.124 301.934C449.835 296.236 452.666 288.927 452.666 280.995V49.0047C452.666 43.0167 451.043 37.3809 448.219 32.5188L303.916 141.265ZM36.3494 18.5049L213.152 153.367C220.625 159.059 228.915 161.902 237.167 161.902C245.464 161.902 253.836 159.028 261.39 153.335L437.035 20.9768C431.972 17.813 426.003 15.9764 419.638 15.9764H49.0047C44.5263 15.9764 40.2491 16.8758 36.3494 18.5049Z" fill="black"/>
</svg>
