<svg width="449" height="470" viewBox="0 0 449 470" fill="none" xmlns="http://www.w3.org/2000/svg">
<path d="M322.427 294.907C303.941 283.405 286.49 295.734 272.444 305.656C251.74 320.281 240.114 326.961 222.326 306.612L145.207 218.368C127.345 197.929 135.64 187.237 153.142 168.571C164.959 155.959 179.647 140.293 170.846 120.411C143.327 39.8874 110.39 3.53405 72.9728 12.3523C30.114 22.4536 -1.8162 95.9257 0.0802537 109.932C12.5732 195.43 46.4449 268.796 103.626 334.221C166.884 406.607 234.188 448.413 322.168 469.859C322.618 469.955 323.187 470 323.856 470C338.493 470 403.187 447.85 417.064 408.019C429.94 371.064 398.094 333.005 322.427 294.907ZM399.85 397.71C393.744 428.092 337.216 449.145 325.213 450.675C242.275 430.219 178.381 390.332 118.206 321.48C63.665 259.077 31.3183 189.122 19.3318 107.743C20.5079 95.7569 48.0938 34.969 80.114 30.7091C104.644 27.4789 130.367 61.6826 152.652 127.096L153.023 128.025C156.473 135.515 151.403 142.099 139.005 155.324C123.631 171.728 100.39 196.522 130.62 231.114L207.739 319.358C237.846 353.804 265.387 334.35 283.614 321.48C298.302 311.109 305.466 307.023 312.41 311.497L313.305 312.003C374.97 342.983 404.897 372.617 399.85 397.71ZM448.983 212.138C448.983 217.485 444.644 221.823 439.298 221.823C433.952 221.823 429.613 217.485 429.613 212.138C429.613 105.847 343.136 19.3697 236.844 19.3697C231.498 19.3697 227.16 15.031 227.16 9.68487C227.16 4.33878 231.498 0 236.844 0C353.823 0 448.983 95.166 448.983 212.138ZM227.165 53.4947C227.165 48.1486 231.504 43.8098 236.85 43.8098C329.669 43.8098 405.179 119.325 405.179 212.138C405.179 217.485 400.84 221.823 395.494 221.823C390.148 221.823 385.809 217.485 385.809 212.138C385.809 130 318.983 63.1795 236.85 63.1795C231.498 63.1739 227.165 58.8407 227.165 53.4947ZM227.165 97.2988C227.165 91.9527 231.504 87.614 236.85 87.614C305.511 87.614 361.375 143.478 361.375 212.138C361.375 217.485 357.036 221.823 351.69 221.823C346.344 221.823 342.005 217.485 342.005 212.138C342.005 154.153 294.83 106.984 236.85 106.984C231.498 106.984 227.165 102.645 227.165 97.2988ZM227.165 141.103C227.165 135.757 231.504 131.418 236.85 131.418C281.358 131.418 317.57 167.631 317.57 212.138C317.57 217.485 313.232 221.823 307.886 221.823C302.539 221.823 298.201 217.485 298.201 212.138C298.201 178.306 270.677 150.788 236.85 150.788C231.498 150.788 227.165 146.449 227.165 141.103Z" fill="black"/>
</svg>
