<svg width="470" height="340" viewBox="0 0 470 340" fill="none" xmlns="http://www.w3.org/2000/svg">
<path d="M430.667 0H38.8571C28.5516 0 18.6681 4.09387 11.381 11.381C4.09387 18.6681 0 28.5516 0 38.8571V301.143C0 311.448 4.09387 321.332 11.381 328.619C18.6681 335.906 28.5516 340 38.8571 340H430.667C440.966 339.979 450.837 335.878 458.119 328.595C465.402 321.313 469.502 311.442 469.524 301.143V38.8571C469.502 28.5582 465.402 18.6871 458.119 11.4046C450.837 4.12212 440.966 0.0213894 430.667 0ZM453.333 301.143C453.312 307.148 450.917 312.901 446.671 317.147C442.425 321.393 436.672 323.788 430.667 323.81H38.8571C32.8521 323.788 27.0992 321.393 22.853 317.147C18.6067 312.901 16.2118 307.148 16.1905 301.143V38.8571C16.2118 32.8521 18.6067 27.0992 22.853 22.853C27.0992 18.6067 32.8521 16.2118 38.8571 16.1905H430.667C436.672 16.2118 442.425 18.6067 446.671 22.853C450.917 27.0992 453.312 32.8521 453.333 38.8571V301.143Z" fill="black"/>
<path d="M194.286 181.011C202.754 170.076 207.34 156.632 207.319 142.801C207.36 132.775 205.007 122.884 200.455 113.95C195.903 105.016 189.284 97.2982 181.149 91.438C173.013 85.5779 163.596 81.7448 153.68 80.2577C143.764 78.7705 133.637 79.6722 124.14 82.8878C114.643 86.1034 106.051 91.54 99.0787 98.7453C92.1063 105.951 86.955 114.717 84.0531 124.314C81.1512 133.911 80.5826 144.063 82.3947 153.924C84.2068 163.786 88.3471 173.072 94.4714 181.011C83.0729 189.014 73.7681 199.643 67.3431 212C60.918 224.357 57.5615 238.079 57.5571 252.006C57.5571 254.153 58.41 256.212 59.9281 257.73C61.4463 259.249 63.5053 260.101 65.6523 260.101C67.7993 260.101 69.8584 259.249 71.3765 257.73C72.8947 256.212 73.7475 254.153 73.7475 252.006C73.7566 240.209 76.7257 228.602 82.3829 218.249C88.0401 207.896 96.2046 199.129 106.129 192.749C117.059 201.197 130.483 205.781 144.298 205.781C158.112 205.781 171.536 201.197 182.467 192.749C192.396 199.123 200.564 207.89 206.222 218.244C211.88 228.598 214.846 240.207 214.848 252.006C214.848 254.153 215.7 256.212 217.219 257.73C218.737 259.249 220.796 260.101 222.943 260.101C225.09 260.101 227.149 259.249 228.667 257.73C230.185 256.212 231.038 254.153 231.038 252.006C231.052 238.093 227.72 224.38 221.324 212.024C214.928 199.669 205.654 189.032 194.286 181.011ZM97.1428 142.801C97.1428 133.547 99.887 124.501 105.028 116.806C110.17 109.111 117.477 103.114 126.027 99.5727C134.577 96.0312 143.985 95.1046 153.062 96.9101C162.138 98.7155 170.475 103.172 177.019 109.716C183.563 116.259 188.019 124.597 189.825 133.673C191.63 142.75 190.704 152.158 187.162 160.707C183.621 169.257 177.623 176.565 169.929 181.706C162.234 186.848 153.188 189.592 143.933 189.592C131.524 189.592 119.622 184.662 110.847 175.887C102.072 167.112 97.1428 155.211 97.1428 142.801Z" fill="black"/>
<path d="M404.762 79.9009H282.443C280.296 79.9009 278.237 80.7538 276.719 82.2719C275.201 83.7901 274.348 85.8491 274.348 87.9961C274.348 90.1431 275.201 92.2022 276.719 93.7203C278.237 95.2385 280.296 96.0914 282.443 96.0914H404.762C406.909 96.0914 408.968 95.2385 410.486 93.7203C412.004 92.2022 412.857 90.1431 412.857 87.9961C412.857 85.8491 412.004 83.7901 410.486 82.2719C408.968 80.7538 406.909 79.9009 404.762 79.9009Z" fill="black"/>
<path d="M404.762 161.905H282.443C280.296 161.905 278.237 162.758 276.719 164.276C275.201 165.794 274.348 167.853 274.348 170C274.348 172.147 275.201 174.206 276.719 175.724C278.237 177.242 280.296 178.095 282.443 178.095H404.762C406.909 178.095 408.968 177.242 410.486 175.724C412.004 174.206 412.857 172.147 412.857 170C412.857 167.853 412.004 165.794 410.486 164.276C408.968 162.758 406.909 161.905 404.762 161.905Z" fill="black"/>
<path d="M404.762 243.908H282.443C280.296 243.908 278.237 244.761 276.719 246.279C275.201 247.797 274.348 249.856 274.348 252.003C274.348 254.15 275.201 256.209 276.719 257.728C278.237 259.246 280.296 260.099 282.443 260.099H404.762C406.909 260.099 408.968 259.246 410.486 257.728C412.004 256.209 412.857 254.15 412.857 252.003C412.857 249.856 412.004 247.797 410.486 246.279C408.968 244.761 406.909 243.908 404.762 243.908Z" fill="black"/>
</svg>
