<svg width="461" height="460" viewBox="0 0 461 460" fill="none" xmlns="http://www.w3.org/2000/svg">
<path d="M230.11 2.6184e-05C169.105 0.078477 110.621 24.3473 67.4844 67.4842C24.3475 110.621 0.0786347 169.105 0.000183938 230.11C-0.0639719 280.586 16.6562 329.651 47.5299 369.585C48.0546 371.854 49.2546 373.911 50.9718 375.485C51.7114 376.143 52.5388 376.694 53.4302 377.124C78.1965 406.884 110.075 429.91 146.11 444.069C182.146 458.228 221.172 463.06 259.573 458.119C297.973 453.178 334.505 438.623 365.783 415.803C397.06 392.983 422.07 362.636 438.496 327.576C454.921 292.515 462.23 253.876 459.745 215.238C457.26 176.601 445.062 139.216 424.281 106.549C403.5 73.8812 374.808 46.9885 340.865 28.3628C306.922 9.73722 268.827 -0.0184461 230.11 2.6184e-05ZM230.11 80.8016C246.01 80.8178 261.548 85.5485 274.759 94.3954C287.97 103.242 298.261 115.808 304.331 130.504C310.4 145.2 311.976 161.365 308.858 176.956C305.74 192.547 298.069 206.864 286.815 218.095C275.56 229.327 261.228 236.969 245.631 240.055C230.033 243.141 213.871 241.532 199.188 235.433C184.505 229.333 171.96 219.016 163.14 205.787C154.32 192.558 149.621 177.01 149.637 161.111C149.708 139.805 158.215 119.394 173.296 104.344C188.376 89.2941 208.804 80.8294 230.11 80.8016ZM230.11 435.636C201.047 435.663 172.31 429.51 145.805 417.586C119.301 405.662 95.6342 388.238 76.3756 366.472C70.9407 360.355 65.9042 353.895 61.2972 347.132C106.818 303.501 167.367 279.033 230.421 278.789C293.476 278.545 354.212 302.543 400.07 345.821C395.356 352.601 390.267 359.112 384.827 365.325C365.563 387.423 341.785 405.133 315.095 417.262C288.406 429.391 259.426 435.657 230.11 435.636Z" fill="#E1E1E1"/>
</svg>
