<svg width="412" height="470" viewBox="0 0 412 470" fill="none" xmlns="http://www.w3.org/2000/svg">
<path d="M238.597 411.249H22.0312C20.084 411.247 18.2171 410.473 16.8403 409.096C15.4635 407.719 14.6892 405.852 14.6874 403.905V80.7813C14.6892 78.8342 15.4635 76.9673 16.8403 75.5905C18.2171 74.2136 20.084 73.4394 22.0312 73.4376H29.3749V374.53C29.3813 380.371 31.7045 385.971 35.8347 390.101C39.965 394.232 45.565 396.555 51.406 396.561H229.418C231.365 396.561 233.233 395.788 234.611 394.41C235.988 393.033 236.761 391.165 236.761 389.217C236.761 387.27 235.988 385.402 234.611 384.025C233.233 382.647 231.365 381.874 229.418 381.874H51.406C49.4589 381.872 47.592 381.098 46.2152 379.721C44.8383 378.344 44.0641 376.477 44.0623 374.53V73.4376H58.7497V80.7813C58.7562 86.6224 61.0793 92.2224 65.2096 96.3526C69.3399 100.483 74.9398 102.806 80.7809 102.812H212.968C218.809 102.806 224.409 100.483 228.539 96.3526C232.669 92.2224 234.993 86.6224 234.999 80.7813V73.4376H249.686V280.751C249.686 282.698 250.46 284.566 251.837 285.944C253.215 287.321 255.082 288.094 257.03 288.094C258.978 288.094 260.846 287.321 262.223 285.944C263.6 284.566 264.374 282.698 264.374 280.751V73.4376H271.718C273.665 73.4394 275.532 74.2136 276.908 75.5905C278.285 76.9673 279.06 78.8342 279.061 80.7813V270.029C279.061 271.977 279.835 273.845 281.212 275.222C282.589 276.599 284.457 277.373 286.405 277.373C288.353 277.373 290.221 276.599 291.598 275.222C292.975 273.845 293.749 271.977 293.749 270.029V80.7813C293.742 74.9403 291.419 69.3403 287.289 65.21C283.159 61.0798 277.559 58.7566 271.718 58.7502H234.999V51.4065C234.993 45.5654 232.669 39.9654 228.539 35.8352C224.409 31.7049 218.809 29.3817 212.968 29.3753H182.854C181.161 21.0826 176.655 13.6293 170.099 8.27652C163.542 2.92372 155.338 0 146.874 0C138.41 0 130.206 2.92372 123.65 8.27652C117.094 13.6293 112.588 21.0826 110.895 29.3753H80.7809C74.9398 29.3817 69.3399 31.7049 65.2096 35.8352C61.0793 39.9654 58.7562 45.5654 58.7497 51.4065V58.7502H22.0312C16.1901 58.7566 10.5901 61.0798 6.45986 65.21C2.32961 69.3403 0.00641458 74.9403 0 80.7813V403.905C0.00641458 409.746 2.32961 415.346 6.45986 419.476C10.5901 423.606 16.1901 425.93 22.0312 425.936H238.597C240.545 425.936 242.413 425.162 243.79 423.785C245.167 422.408 245.941 420.54 245.941 418.592C245.941 416.645 245.167 414.777 243.79 413.4C242.413 412.022 240.545 411.249 238.597 411.249ZM73.4372 51.4065C73.4389 49.4593 74.2132 47.5924 75.59 46.2156C76.9669 44.8388 78.8337 44.0645 80.7809 44.0627H117.499C119.447 44.0627 121.315 43.289 122.692 41.9118C124.069 40.5346 124.843 38.6667 124.843 36.719C124.843 30.876 127.164 25.2723 131.296 21.1407C135.428 17.009 141.031 14.6879 146.874 14.6879C152.717 14.6879 158.321 17.009 162.453 21.1407C166.584 25.2723 168.905 30.876 168.905 36.719C168.905 38.6667 169.679 40.5346 171.056 41.9118C172.434 43.289 174.302 44.0627 176.249 44.0627H212.968C214.915 44.0645 216.782 44.8388 218.159 46.2156C219.535 47.5924 220.31 49.4593 220.312 51.4065V80.7813C220.31 82.7285 219.535 84.5954 218.159 85.9722C216.782 87.349 214.915 88.1233 212.968 88.1251H80.7809C78.8337 88.1233 76.9669 87.349 75.59 85.9722C74.2132 84.5954 73.4389 82.7285 73.4372 80.7813V51.4065Z" fill="black"/>
<path d="M183.593 154.218C185.541 154.218 187.408 153.444 188.786 152.067C190.163 150.69 190.937 148.822 190.937 146.874C190.937 144.927 190.163 143.059 188.786 141.682C187.408 140.304 185.541 139.531 183.593 139.531H110.156C108.208 139.531 106.34 140.304 104.963 141.682C103.586 143.059 102.812 144.927 102.812 146.874C102.812 148.822 103.586 150.69 104.963 152.067C106.34 153.444 108.208 154.218 110.156 154.218H183.593Z" fill="black"/>
<path d="M212.968 257.03H80.7809C78.8332 257.03 76.9653 257.804 75.5881 259.181C74.2108 260.558 73.4371 262.426 73.4371 264.374C73.4371 266.322 74.2108 268.19 75.5881 269.567C76.9653 270.944 78.8332 271.718 80.7809 271.718H212.968C214.915 271.718 216.783 270.944 218.161 269.567C219.538 268.19 220.311 266.322 220.311 264.374C220.311 262.426 219.538 260.558 218.161 259.181C216.783 257.804 214.915 257.03 212.968 257.03Z" fill="black"/>
<path d="M212.968 198.281H80.7809C78.8332 198.281 76.9653 199.054 75.5881 200.432C74.2108 201.809 73.4371 203.677 73.4371 205.624C73.4371 207.572 74.2108 209.44 75.5881 210.817C76.9653 212.194 78.8332 212.968 80.7809 212.968H212.968C214.915 212.968 216.783 212.194 218.161 210.817C219.538 209.44 220.311 207.572 220.311 205.624C220.311 203.677 219.538 201.809 218.161 200.432C216.783 199.054 214.915 198.281 212.968 198.281Z" fill="black"/>
<path d="M212.968 315.78H80.7809C78.8332 315.78 76.9653 316.553 75.5881 317.931C74.2108 319.308 73.4371 321.176 73.4371 323.124C73.4371 325.071 74.2108 326.939 75.5881 328.316C76.9653 329.694 78.8332 330.467 80.7809 330.467H212.968C214.915 330.467 216.783 329.694 218.161 328.316C219.538 326.939 220.311 325.071 220.311 323.124C220.311 321.176 219.538 319.308 218.161 317.931C216.783 316.553 214.915 315.78 212.968 315.78Z" fill="black"/>
<path d="M404.75 305.953C382.071 293.192 356.487 286.488 330.464 286.488C304.44 286.488 278.856 293.192 256.177 305.953C254.229 307.054 252.604 308.647 251.465 310.573C250.326 312.498 249.713 314.689 249.686 316.926V369.042C249.686 413.079 280.28 453.334 325.834 469.215C328.839 470.26 332.108 470.262 335.114 469.222C380.647 453.344 411.248 413.09 411.248 369.053V316.926C411.222 314.688 410.607 312.497 409.467 310.571C408.327 308.645 406.7 307.053 404.75 305.953ZM396.561 369.053C396.561 407.378 370.629 441.206 330.482 455.281C290.321 441.206 264.374 407.375 264.374 369.042V318.188C284.608 307.004 307.348 301.138 330.467 301.138C353.586 301.138 376.327 307.004 396.561 318.188V369.053Z" fill="black"/>
<path d="M304.499 370.075C303.805 369.405 302.986 368.879 302.089 368.526C301.191 368.173 300.233 368 299.269 368.017C298.304 368.035 297.353 368.242 296.469 368.627C295.584 369.012 294.785 369.567 294.115 370.261C293.445 370.955 292.919 371.774 292.566 372.672C292.213 373.569 292.04 374.528 292.057 375.492C292.075 376.456 292.282 377.408 292.667 378.292C293.052 379.176 293.607 379.976 294.301 380.645L318.856 404.337C320.225 405.658 322.053 406.396 323.956 406.396C325.858 406.396 327.686 405.658 329.055 404.337L375.111 359.918C376.513 358.565 377.321 356.711 377.356 354.764C377.391 352.816 376.651 350.934 375.299 349.531C373.947 348.129 372.093 347.321 370.145 347.286C368.197 347.251 366.315 347.99 364.913 349.343L323.956 388.84L304.499 370.075Z" fill="black"/>
</svg>
