<svg width="470" height="470" viewBox="0 0 470 470" fill="none" xmlns="http://www.w3.org/2000/svg">
<path d="M451.525 143.531C439.671 115.551 422.744 90.401 401.171 68.8287C379.599 47.2563 354.449 30.3295 326.469 18.4753C297.474 6.24744 266.718 0 235 0C203.282 0 172.526 6.19405 143.531 18.4753C115.551 30.3295 90.4011 47.2563 68.8287 68.8287C47.2563 90.401 30.3295 115.551 18.4753 143.531C6.24744 172.526 0 203.282 0 235C0 266.718 6.19404 297.474 18.4753 326.469C30.3295 354.449 47.2563 379.599 68.8287 401.171C90.4011 422.744 115.551 439.671 143.531 451.525C172.526 463.753 203.282 470 235 470C266.718 470 297.474 463.806 326.469 451.525C354.449 439.671 379.599 422.744 401.171 401.171C422.744 379.599 439.671 354.449 451.525 326.469C463.753 297.474 470 266.718 470 235C470 203.282 463.806 172.526 451.525 143.531ZM433.583 318.833C422.744 344.464 407.205 367.531 387.395 387.342C367.585 407.152 344.571 422.69 318.887 433.53C292.348 444.743 264.101 450.457 235 450.457C205.899 450.457 177.705 444.743 151.113 433.53C125.483 422.69 102.415 407.152 82.6051 387.342C62.7948 367.531 47.2563 344.517 36.4167 318.833C25.2034 292.295 19.4899 264.048 19.4899 234.947C19.4899 205.845 25.2034 177.652 36.4167 151.06C47.2563 125.429 62.7948 102.362 82.6051 82.5517C102.415 62.7414 125.429 47.2029 151.113 36.3633C177.652 25.15 205.899 19.4365 235 19.4365C264.101 19.4365 292.295 25.15 318.887 36.3633C344.517 47.2029 367.585 62.7414 387.395 82.5517C407.205 102.362 422.744 125.376 433.583 151.06C444.797 177.598 450.51 205.845 450.51 234.947C450.51 264.048 444.797 292.242 433.583 318.833Z" fill="black"/>
<path d="M329.299 124.947C329.299 119.554 324.921 115.229 319.581 115.229H149.405C144.012 115.229 139.687 119.607 139.687 124.947C139.687 130.286 144.065 134.665 149.405 134.665H200.613C225.656 134.665 246.641 152.5 251.5 176.154H149.565C144.172 176.154 139.847 180.533 139.847 185.873C139.847 191.212 144.225 195.591 149.565 195.591H251.767C247.495 219.94 226.19 238.469 200.613 238.469H152.021C148.07 238.469 144.546 240.818 142.997 244.503C141.502 248.134 142.303 252.352 145.133 255.129L266.131 376.126C268.053 378.048 270.509 378.956 273.019 378.956C275.529 378.956 277.985 377.995 279.907 376.126C283.698 372.335 283.698 366.141 279.907 362.35L175.516 257.959H200.613C236.923 257.959 266.985 230.726 271.47 195.591H319.581C324.974 195.591 329.299 191.212 329.299 185.873C329.299 180.533 324.921 176.154 319.581 176.154H271.257C268.854 159.922 261.005 145.451 249.578 134.665H319.581C324.974 134.665 329.299 130.286 329.299 124.947Z" fill="black"/>
</svg>
