<svg width="461" height="410" viewBox="0 0 461 410" fill="none" xmlns="http://www.w3.org/2000/svg">
<path d="M261.24 290.401C260.26 290.94 259.427 291.713 258.817 292.651C258.207 293.589 257.838 294.663 257.742 295.778C257.647 296.893 257.829 298.014 258.272 299.042C258.714 300.07 259.404 300.972 260.279 301.669C262.438 303.24 265.039 304.086 267.708 304.086C270.378 304.086 272.978 303.24 275.137 301.669C276.1 301.101 276.907 300.303 277.485 299.346C278.064 298.39 278.396 297.305 278.452 296.188C278.509 295.072 278.287 293.959 277.808 292.949C277.329 291.939 276.606 291.063 275.706 290.401C273.58 288.931 271.057 288.143 268.473 288.143C265.889 288.143 263.366 288.931 261.24 290.401ZM334.495 267.984C329.151 267.984 325.042 271.118 325.324 275.053C325.911 277.338 327.3 279.335 329.238 280.68C331.175 282.026 333.532 282.629 335.877 282.382C341.417 282.382 345.508 279.068 345.024 275.053C344.358 272.839 342.944 270.925 341.024 269.635C339.104 268.346 336.797 267.763 334.495 267.984ZM317.718 290.401C316.817 291.063 316.095 291.939 315.615 292.949C315.136 293.959 314.915 295.072 314.971 296.188C315.027 297.305 315.36 298.39 315.938 299.346C316.517 300.303 317.324 301.101 318.286 301.669C320.445 303.24 323.046 304.087 325.715 304.087C328.385 304.087 330.986 303.24 333.144 301.669C334.02 300.972 334.709 300.07 335.152 299.042C335.595 298.014 335.776 296.893 335.681 295.778C335.586 294.663 335.217 293.589 334.607 292.651C333.997 291.713 333.165 290.94 332.184 290.401C330.059 288.931 327.535 288.143 324.951 288.143C322.366 288.143 319.843 288.931 317.718 290.401ZM296.71 255.182C301.881 255.182 306.002 252.294 305.916 248.791C305.831 245.352 301.711 242.61 296.71 242.61C291.71 242.61 287.59 245.352 287.506 248.791C287.42 252.297 291.54 255.182 296.71 255.182ZM329.658 260.795C330.447 260.27 331.08 259.543 331.492 258.689C331.903 257.835 332.078 256.887 331.997 255.942C331.917 254.998 331.584 254.093 331.034 253.321C330.484 252.549 329.737 251.939 328.87 251.555C326.899 250.341 324.628 249.698 322.313 249.698C319.997 249.698 317.727 250.341 315.755 251.555C314.948 252.049 314.288 252.752 313.846 253.59C313.405 254.427 313.197 255.368 313.244 256.314C313.292 257.26 313.594 258.175 314.118 258.963C314.642 259.752 315.369 260.385 316.222 260.795C318.225 262.085 320.557 262.771 322.94 262.772C325.322 262.772 327.654 262.084 329.658 260.795ZM268.098 275.051C268.379 271.115 264.271 267.981 258.926 267.981C256.625 267.76 254.317 268.344 252.397 269.633C250.478 270.922 249.064 272.836 248.397 275.051C247.913 279.065 252.005 282.379 257.544 282.379C259.889 282.627 262.246 282.023 264.183 280.679C266.121 279.334 267.51 277.335 268.098 275.051ZM296.707 224.966C259.618 224.966 228.153 246.023 223.523 273.949C222.486 280.685 222.952 287.567 224.886 294.103C226.82 300.638 230.176 306.664 234.713 311.751C242.65 320.142 252.286 326.745 262.977 331.118C273.668 335.491 285.169 337.534 296.712 337.111C308.257 337.533 319.759 335.49 330.451 331.116C341.143 326.742 350.78 320.138 358.719 311.746C363.255 306.66 366.61 300.635 368.545 294.1C370.479 287.566 370.945 280.685 369.908 273.949C365.261 246.026 333.796 224.966 296.707 224.966ZM348.467 303.058C341.791 309.964 333.725 315.373 324.802 318.928C315.879 322.483 306.303 324.103 296.707 323.679C287.113 324.104 277.538 322.486 268.617 318.932C259.695 315.378 251.631 309.97 244.956 303.065C241.672 299.473 239.234 295.191 237.819 290.535C236.404 285.878 236.049 280.963 236.779 276.151C240.29 254.986 266.613 238.403 296.707 238.403C326.8 238.403 353.125 254.986 356.645 276.156C357.374 280.966 357.019 285.879 355.604 290.535C354.189 295.19 351.751 299.467 348.467 303.058ZM296.71 297.105C294.236 296.855 291.761 297.562 289.791 299.08C287.821 300.598 286.507 302.811 286.117 305.267C286.655 307.675 287.998 309.828 289.924 311.371C291.849 312.913 294.243 313.754 296.71 313.754C299.178 313.754 301.572 312.913 303.497 311.371C305.423 309.828 306.765 307.675 307.303 305.267C306.913 302.812 305.599 300.599 303.629 299.082C301.659 297.564 299.184 296.855 296.71 297.105ZM264.55 251.555C263.684 251.939 262.937 252.549 262.387 253.321C261.837 254.093 261.505 254.998 261.424 255.943C261.344 256.887 261.518 257.835 261.93 258.689C262.341 259.543 262.975 260.27 263.763 260.795C265.767 262.084 268.099 262.77 270.481 262.77C272.863 262.77 275.195 262.084 277.198 260.795C278.051 260.385 278.778 259.752 279.302 258.964C279.827 258.175 280.128 257.259 280.176 256.314C280.224 255.368 280.016 254.427 279.573 253.589C279.131 252.752 278.472 252.049 277.664 251.555C275.692 250.342 273.422 249.699 271.107 249.7C268.791 249.7 266.522 250.341 264.55 251.555ZM437.21 269.116C427.815 253.07 419.7 239.217 419.7 220.065V181.099C419.691 175.651 417.523 170.429 413.669 166.578C409.816 162.726 404.593 160.561 399.145 160.555H354.155C348.708 160.561 343.486 162.728 339.634 166.579C335.783 170.431 333.617 175.653 333.61 181.099V189.012C333.61 190.552 332.999 192.029 331.91 193.118C330.822 194.207 329.346 194.819 327.806 194.821H265.359C263.82 194.819 262.344 194.207 261.255 193.118C260.167 192.029 259.556 190.552 259.556 189.012V181.099C259.549 175.653 257.383 170.431 253.531 166.579C249.68 162.728 244.458 160.561 239.011 160.555H207.786C206.656 146.356 202.346 132.593 195.175 120.285C194.737 119.546 194.459 118.724 194.357 117.871C194.255 117.019 194.333 116.154 194.584 115.333C194.816 114.578 195.205 113.881 195.725 113.288C196.245 112.694 196.885 112.218 197.603 111.889C234.602 94.7387 273.122 81.0814 312.661 71.0948C313.447 70.8969 314.266 70.8665 315.064 71.0056C315.863 71.1446 316.623 71.4499 317.297 71.9017C317.97 72.3536 318.54 72.9418 318.971 73.6284C319.402 74.3149 319.684 75.0844 319.799 75.8869C322.139 93.3822 329.433 109.844 340.82 123.33C341.64 124.255 342.677 124.96 343.838 125.381C366.096 133.442 437.775 113.867 451.076 87.311C451.443 86.5665 451.685 85.7668 451.793 84.9438C453.511 70.2225 451.37 55.3075 445.581 41.6635C439.793 28.0195 430.555 16.1155 418.775 7.12049C411.979 2.14632 403.686 -0.352262 395.273 0.0400624C284.278 3.32132 177.028 40.9258 88.2869 107.677C81.6046 112.7 76.7989 119.817 74.6378 127.892C72.8057 135.205 71.9812 142.735 72.1872 150.271C58.6556 151.572 45.8176 156.872 35.3093 165.496C23.0731 175.928 15.0635 190.466 12.7831 206.382C12.2248 210.39 12.0779 214.444 12.3447 218.482C11.2069 220.751 10.2108 223.089 9.3621 225.481C3.98379 240.499 2.45016 256.624 4.90106 272.386C5.91141 279.52 8.07998 286.44 11.3211 292.875C9.51162 295.594 7.91558 298.449 6.54735 301.414C2.5028 310.029 0.28231 319.386 0.025209 328.9C-0.231893 338.413 1.47994 347.876 5.05331 356.697C8.81416 365.659 14.7255 373.557 22.2645 379.692C29.8035 385.827 38.738 390.009 48.2779 391.87C51.285 392.402 54.3332 392.669 57.3871 392.667C69.1036 392.669 80.4947 388.813 89.8012 381.695C103.44 386.724 117.95 388.964 132.47 388.28V389.456C132.476 394.902 134.643 400.124 138.494 403.976C142.346 407.827 147.567 409.994 153.014 410H440.406C445.853 409.994 451.075 407.828 454.927 403.976C458.778 400.125 460.945 394.903 460.951 389.456V343.473C460.484 316.898 452.229 291.045 437.21 269.116ZM88.8959 131.596C90.2216 126.725 93.1418 122.44 97.1898 119.424C183.551 54.4922 287.917 17.9269 395.919 14.7622C400.934 14.4913 405.889 15.9609 409.945 18.9224C419.409 26.2571 426.877 35.8536 431.661 46.8295C436.446 57.8054 438.394 69.8081 437.326 81.7338C426.452 99.777 368.387 116.069 350.536 112.012C341.823 100.974 336.246 87.7917 334.394 73.8518C333.992 71.0016 332.996 68.2678 331.469 65.8279C329.942 63.3879 327.919 61.2962 325.531 59.6885C323.144 58.0809 320.445 56.9932 317.61 56.496C314.775 55.9989 311.867 56.1034 309.075 56.8028C268.644 67.0148 229.256 80.9804 191.423 98.5177C188.843 99.7135 186.541 101.434 184.664 103.57C182.787 105.706 181.377 108.21 180.522 110.922C179.659 113.704 179.385 116.636 179.718 119.53C180.051 122.423 180.984 125.216 182.457 127.729C189.524 139.619 193.319 153.168 193.455 167C177.854 186.033 130.607 202.566 106.344 197.358C98.2024 188.708 92.3439 178.166 89.2976 166.685C86.2514 155.203 86.1133 143.144 88.8959 131.596ZM88.0182 362.43C87.6064 363.03 87.1763 363.617 86.7195 364.19C84.0438 362.754 81.5409 361.017 79.2594 359.013C75.2143 355.696 72.1334 351.355 70.3382 346.442C69.6552 344.519 69.4474 342.458 69.7328 340.437C70.0182 338.416 70.7882 336.494 71.9772 334.835C72.9606 333.792 74.1541 332.97 75.4788 332.422C76.8035 331.875 78.2293 331.615 79.662 331.659C81.3264 331.649 82.9723 332.009 84.4808 332.712C86.8144 333.973 88.7992 335.792 90.2575 338.008C91.7158 340.223 92.602 342.766 92.8369 345.408C93.2824 351.472 91.5762 357.499 88.0182 362.43ZM132.47 343.473V373.447C121.773 374.116 111.042 372.906 100.764 369.87C105.964 362.202 108.335 352.964 107.472 343.739C106.968 338.61 105.178 333.692 102.268 329.439C99.357 325.186 95.4203 321.736 90.822 319.409C85.8457 316.988 80.2159 316.255 74.7855 317.32C69.3552 318.386 64.4202 321.193 60.7283 325.315C57.9345 328.856 56.0636 333.035 55.2834 337.477C54.5031 341.919 54.8381 346.485 56.2581 350.766C58.8116 358.245 63.3577 364.886 69.4064 369.973C71.0007 371.396 72.6883 372.711 74.4581 373.909C67.1468 377.503 58.8911 378.707 50.8578 377.353C43.7442 375.884 37.0935 372.711 31.4771 368.104C25.8608 363.498 21.4468 357.597 18.6144 350.909C15.8375 343.992 14.5196 336.575 14.743 329.125C14.9665 321.675 16.7266 314.351 19.913 307.613C20.2616 306.87 20.6196 306.143 20.987 305.432C24.5767 308.746 28.8373 311.249 33.4797 312.771C38.122 314.293 43.0376 314.799 47.8927 314.255C51.2632 313.764 54.5025 312.608 57.4224 310.854C60.3423 309.101 62.8845 306.784 64.9013 304.039C66.4974 301.917 67.6425 299.49 68.2663 296.909C68.8901 294.327 68.9794 291.645 68.5287 289.028C67.7782 285.425 66.1002 282.08 63.6607 279.324C61.2212 276.568 58.1046 274.496 54.6191 273.314C48.5345 271.272 41.9471 271.289 35.8734 273.363C30.8579 274.979 26.1932 277.528 22.1252 280.877C20.902 277.382 20.0111 273.78 19.4646 270.117C18.0047 260.722 18.2109 251.143 20.0735 241.819L20.235 242.052C23.9746 247.628 29.1876 252.057 35.2942 254.848C41.4008 257.639 48.1618 258.681 54.8255 257.86C61.7167 256.539 67.9333 252.86 72.408 247.455C76.8828 242.051 79.3366 235.257 79.3484 228.24C79.1983 223.496 78.0231 218.84 75.9036 214.593C73.784 210.346 70.7703 206.609 67.0695 203.637C62.8712 200.375 57.9916 198.102 52.7937 196.987C47.5957 195.871 42.2132 195.942 37.0464 197.194C34.3475 197.763 31.7424 198.709 29.3084 200.006C32.2249 190.968 37.5956 182.919 44.8211 176.756C53.0877 170.056 63.1616 165.969 73.7592 165.016C76.8641 181.893 85.1549 197.381 97.4768 209.324C98.3674 210.191 99.4648 210.815 100.665 211.138C105.864 212.467 111.215 213.104 116.581 213.032C136.944 212.332 156.912 207.227 175.112 198.068V220.063C174.645 239.842 167.849 258.95 155.722 274.582C140.801 294.467 132.651 318.613 132.47 343.473ZM29.9018 293.603C32.8676 290.814 36.4078 288.707 40.2739 287.431C43.2804 286.35 46.5541 286.261 49.6151 287.176C50.6674 287.509 51.6215 288.096 52.3933 288.885C53.1651 289.674 53.7308 290.641 54.0404 291.7C54.1265 292.361 54.0746 293.033 53.888 293.674C53.7014 294.314 53.3842 294.909 52.9563 295.421C51.2236 297.688 48.688 299.204 45.8713 299.658C42.9264 299.903 39.9641 299.486 37.2011 298.438C34.4381 297.391 31.9442 295.739 29.9018 293.603ZM27.564 221.498C28.9711 218.923 30.9186 216.682 33.2729 214.929C35.6271 213.177 38.3325 211.955 41.2035 211.346C44.0745 210.737 47.0432 210.756 49.9061 211.402C52.769 212.048 55.4583 213.305 57.7897 215.088C59.7881 216.689 61.4276 218.692 62.6019 220.967C63.7762 223.242 64.459 225.739 64.606 228.295C64.6057 231.81 63.4 235.218 61.1902 237.951C58.9805 240.683 55.9003 242.576 52.4638 243.312C48.5541 243.683 44.6171 242.983 41.0759 241.285C37.5347 239.587 34.5232 236.955 32.3653 233.674C29.9132 230.005 28.2779 225.853 27.564 221.498ZM446.21 389.452C446.21 390.992 445.599 392.468 444.51 393.557C443.422 394.646 441.946 395.259 440.406 395.26H153.017C151.477 395.259 150.001 394.647 148.912 393.558C147.824 392.469 147.213 390.992 147.212 389.452V367.746H446.21V389.452ZM446.21 353.012H147.212V343.473C147.357 321.427 154.7 300.031 168.123 282.541C181.852 264.57 189.466 242.676 189.853 220.065V189.534C195.802 185.617 201.116 180.811 205.61 175.284H239.013C240.553 175.285 242.03 175.899 243.118 176.989C244.207 178.079 244.818 179.556 244.817 181.097V189.01C244.823 194.457 246.989 199.679 250.841 203.53C254.692 207.381 259.914 209.548 265.361 209.554H327.806C333.253 209.548 338.475 207.381 342.327 203.53C346.178 199.679 348.345 194.457 348.351 189.01V181.097C348.35 179.556 348.961 178.079 350.049 176.989C351.138 175.899 352.614 175.285 354.155 175.284H399.148C400.69 175.285 402.167 175.898 403.257 176.988C404.347 178.078 404.96 179.555 404.961 181.097V220.062C406.001 240.363 412.778 259.954 424.504 276.559C438.16 296.243 445.711 319.516 446.215 343.469L446.21 353.012Z" fill="black"/>
</svg>
