<svg width="468" height="340" viewBox="0 0 468 340" fill="none" xmlns="http://www.w3.org/2000/svg">
<path d="M405.14 176.508C418.661 163.527 427.131 145.323 427.131 125.145C427.131 85.8488 395.161 53.8784 355.865 53.8784C316.569 53.8784 284.598 85.8488 284.598 125.145C284.598 145.485 293.211 163.817 306.924 176.812C291.816 184.329 278.531 195.232 268.159 208.763C256.151 198.185 242.531 189.39 227.635 182.752C250.506 163.802 265.103 135.197 265.103 103.242C265.103 46.317 218.791 0 161.861 0C104.932 0 58.6197 46.3121 58.6197 103.242C58.6197 135.217 73.2365 163.836 96.1321 182.792C38.7015 208.429 0 266.351 0 330.174C0 335.598 4.40225 340 9.82645 340C15.2506 340 19.6529 335.598 19.6529 330.174C19.6529 269.618 59.3124 215.096 116.571 195.871C130.269 202.597 145.608 206.483 161.871 206.483C178.149 206.483 193.502 202.592 207.215 195.851C264.263 214.87 303.804 269.451 303.804 330.174C303.804 335.598 308.207 340 313.631 340C319.055 340 323.457 335.598 323.457 330.174C323.457 289.772 308.049 251.759 282.309 222.78C293.364 207.52 308.752 196.062 326.415 189.955C335.406 194.058 345.36 196.406 355.87 196.406C366.531 196.406 376.613 193.989 385.703 189.773C422.164 202.076 447.413 237.038 447.413 275.927C447.413 281.351 451.815 285.753 457.239 285.753C462.664 285.753 467.066 281.351 467.066 275.927C467.066 233.471 442.318 194.8 405.14 176.508ZM124.933 178.109C123.553 176.714 121.794 175.771 119.868 175.392C95.0414 160.884 78.2824 134.013 78.2824 103.237C78.2824 57.1457 115.78 19.648 161.871 19.648C207.962 19.648 245.46 57.1457 245.46 103.237C245.46 134.195 228.504 161.213 203.432 175.662C202.071 176.056 200.818 176.738 199.747 177.662C188.363 183.479 175.515 186.83 161.876 186.83C148.6 186.83 136.091 183.642 124.933 178.109ZM331.996 170.857C331.721 170.7 331.441 170.567 331.151 170.435C315.139 161.66 304.251 144.65 304.251 125.14C304.251 96.6775 327.402 73.5264 355.865 73.5264C384.327 73.5264 407.478 96.6775 407.478 125.14C407.478 153.597 384.327 176.753 355.865 176.753C347.257 176.753 339.145 174.606 331.996 170.857Z" fill="black"/>
</svg>
