<svg width="466" height="450" viewBox="0 0 466 450" fill="none" xmlns="http://www.w3.org/2000/svg">
<path d="M240.22 0C116.151 0 15.2177 100.939 15.2177 225.003C15.2177 262.963 24.8604 300.378 43.1418 333.53L0.76617 436.053C-0.707238 439.615 -0.0209882 443.698 2.5272 446.584C4.46988 448.789 7.24009 450 10.0961 450C10.9842 450 11.8823 449.884 12.7603 449.642L125.754 418.7C160.353 439.192 199.833 450 240.225 450C364.289 450 465.228 349.066 465.228 224.997C465.228 100.928 364.284 0 240.22 0ZM240.22 429.821C202.103 429.821 164.88 419.25 132.581 399.248C130.971 398.249 129.129 397.734 127.267 397.734C126.374 397.734 125.481 397.85 124.603 398.093L27.2825 424.74L63.6736 336.694C64.8746 333.787 64.6525 330.487 63.0732 327.768C44.9684 296.624 35.4014 261.091 35.4014 225.003C35.4014 112.065 127.282 20.1837 240.22 20.1837C353.158 20.1837 445.039 112.065 445.039 225.003C445.039 337.94 353.158 429.821 240.22 429.821Z" fill="black"/>
<path d="M335.745 272.872L286.945 247.375C283.555 245.604 279.452 245.902 276.354 248.147L235.21 277.944C212.13 260.808 198.279 245.508 198.026 245.231C197.875 245.059 197.688 244.933 197.527 244.777C197.38 244.63 197.264 244.464 197.103 244.328C196.906 244.156 187.45 235.81 175.481 219.845L205.963 177.752C208.204 174.654 208.507 170.551 206.73 167.16L181.238 118.366C178.665 113.437 172.595 111.524 167.67 114.072L122.509 137.374C118.175 139.61 116.06 144.625 117.483 149.288C138.333 217.589 178.569 254.848 183.393 259.137C188.58 264.834 236.31 315.712 304.823 336.628C305.802 336.925 306.791 337.067 307.77 337.067C311.464 337.067 314.97 335.028 316.737 331.602L340.044 286.446C342.587 281.511 340.669 275.441 335.745 272.872ZM139.367 151.377L167.993 136.607L185.946 170.97L163.391 202.119C154.889 188.394 146.235 171.424 139.367 151.377ZM302.739 314.703C284.205 308.194 267.357 299.323 252.845 290.089L283.131 268.154L317.498 286.108L302.739 314.703Z" fill="black"/>
</svg>
